<?xml version="1.0" standalone="no"?>
<!DOCTYPE svg PUBLIC "-//W3C//DTD SVG 20010904//EN"
 "http://www.w3.org/TR/2001/REC-SVG-20010904/DTD/svg10.dtd">
<svg version="1.0" xmlns="http://www.w3.org/2000/svg"
 width="393.000000pt" height="393.000000pt" viewBox="0 0 393.000000 393.000000"
 preserveAspectRatio="xMidYMid meet">
<metadata>
Created by potrace 1.11, written by Peter Selinger 2001-2013
</metadata>
<g transform="translate(0.000000,393.000000) scale(0.100000,-0.100000)"
fill="#000000" stroke="none">
<path d="M612 3846 c-3 -6 -7 -25 -8 -43 -7 -110 -122 -220 -232 -225 -13 0
-26 -7 -29 -14 -3 -8 -6 -509 -7 -1114 -1 -890 1 -1100 12 -1100 10 0 10 -5 1
-21 -8 -15 -8 -19 0 -15 6 4 11 4 12 -1 4 -39 12 -69 19 -71 4 -2 6 -12 3 -22
-3 -12 0 -20 6 -20 7 0 10 -4 7 -9 -3 -5 1 -22 10 -40 8 -17 16 -40 17 -51 1
-11 5 -20 9 -20 4 0 7 -3 6 -7 -3 -10 58 -137 88 -185 13 -21 21 -38 17 -38
-5 0 0 -5 10 -11 9 -5 17 -17 17 -24 0 -8 4 -15 8 -15 5 0 14 -11 20 -24 6
-14 20 -35 31 -48 11 -13 22 -27 23 -33 4 -12 35 -48 105 -122 29 -30 53 -59
53 -64 0 -5 5 -9 10 -9 6 0 28 -18 50 -40 22 -22 42 -40 45 -40 5 0 45 -33 71
-58 8 -7 14 -10 14 -6 0 4 8 -2 18 -12 9 -10 26 -25 37 -32 74 -47 90 -57 93
-54 2 2 10 -5 18 -15 7 -10 14 -14 14 -10 0 5 12 0 27 -10 34 -23 85 -47 96
-45 4 1 7 -2 7 -7 0 -4 21 -14 46 -21 25 -7 48 -20 51 -27 5 -12 7 -12 14 -1
7 10 9 11 9 0 0 -7 5 -10 10 -7 6 4 16 2 23 -3 10 -8 52 -22 82 -28 6 -1 15
-3 20 -4 6 -2 15 -4 20 -5 6 -1 21 -5 35 -8 14 -4 36 -8 50 -10 14 -1 30 -5
35 -9 6 -3 24 -5 40 -4 17 1 35 -2 42 -7 16 -11 298 -11 354 0 25 6 53 9 62 7
9 -1 17 2 17 7 0 6 3 8 8 5 6 -4 45 2 119 19 12 3 34 10 48 15 14 5 25 7 25 4
0 -4 7 -1 15 6 8 7 15 9 15 5 0 -4 7 -1 17 6 9 8 17 12 17 11 1 -2 21 4 46 14
25 10 48 18 53 16 4 -1 7 3 7 10 0 6 3 8 6 5 7 -7 84 31 96 48 4 6 8 6 8 1 0
-5 7 -3 15 4 8 7 15 10 15 6 0 -3 9 3 20 14 11 11 27 20 35 20 8 0 15 5 15 11
0 5 5 7 10 4 6 -3 10 -1 10 5 0 6 4 9 8 6 5 -3 15 4 22 15 8 10 18 19 23 19
11 0 111 77 153 117 7 7 18 13 25 13 7 0 10 3 7 6 -6 6 38 54 50 54 4 1 21 19
37 40 17 21 36 39 43 40 7 0 11 4 8 8 -3 5 12 27 33 50 21 23 37 42 34 42 -5
0 16 26 40 48 9 9 17 22 17 29 0 7 5 13 10 13 6 0 10 5 10 11 0 6 12 26 26 45
15 19 22 34 18 34 -5 0 -4 4 3 8 13 8 103 190 103 209 0 7 5 13 12 13 6 0 8 3
5 6 -3 4 -1 16 5 28 7 11 11 25 10 29 -1 4 2 16 7 26 10 17 22 63 23 89 1 6 5
12 9 12 4 0 6 8 4 18 -1 9 2 23 8 30 7 9 10 365 9 1110 0 603 -1 1104 -2 1112
-1 10 -3 11 -6 3 -4 -8 -13 -9 -27 -4 -12 5 -30 7 -39 6 -10 -2 -18 1 -18 7 0
6 -9 8 -20 5 -11 -3 -20 -1 -20 5 0 5 -4 7 -9 4 -5 -3 -12 1 -15 10 -3 8 -9
13 -13 11 -11 -7 -33 19 -25 29 4 4 2 5 -3 1 -6 -3 -16 -3 -22 1 -16 10 -63
104 -57 114 3 4 1 8 -3 8 -5 0 -10 19 -12 42 -1 23 -4 44 -7 47 -9 9 -2666 6
-2672 -3z"/>
</g>
</svg>
